<svg
  width="17"
  height="41"
  viewBox="0 0 17 41"
  fill="none"
  xmlns="http://www.w3.org/2000/svg">
  <rect x="7.75" y="14.5" width="1.75" height="1.75" fill="#000" />
  <rect x="11.5" y="14.5" width="1.75" height="1.75" fill="#000" />
  <rect x="15.25" y="14.5" width="1.75" height="1.75" fill="#000" />
  <rect x="7.75" y="21.5" width="1.75" height="1.75" fill="#000" />
  <rect x="7.75" y="25" width="1.75" height="1.75" fill="#000" />
  <rect x="11.5" y="21.5" width="1.75" height="1.75" fill="#000" />
  <rect x="15.25" y="21.5" width="1.75" height="1.75" fill="#000" />
  <rect x="11.5" y="25" width="1.75" height="1.75" fill="#000" />
  <rect x="15.25" y="25" width="1.75" height="1.75" fill="#000" />
  <rect x="7.75" y="11" width="1.75" height="1.75" fill="#000" />
  <rect x="11.5" y="11" width="1.75" height="1.75" fill="#000" />
  <rect x="15.25" y="11" width="1.75" height="1.75" fill="#000" />
  <rect x="7.75" y="18" width="1.75" height="1.75" fill="#000" />
  <rect x="11.5" y="18" width="1.75" height="1.75" fill="#000" />
  <rect x="15.25" y="18" width="1.75" height="1.75" fill="#000" />
  <rect x="7.75" y="7.5" width="1.75" height="1.75" fill="#000" />
  <rect x="11.5" y="7.5" width="1.75" height="1.75" fill="#000" />
  <rect x="15.25" y="7.5" width="1.75" height="1.75" fill="#000" />
  <rect x="7.75" y="4" width="1.75" height="1.75" fill="#000" />
  <rect x="7.75" y="0.5" width="1.75" height="1.75" fill="#000" />
  <rect x="11.5" y="4" width="1.75" height="1.75" fill="#000" />
  <rect x="15.25" y="4" width="1.75" height="1.75" fill="#000" />
  <rect x="11.5" y="0.5" width="1.75" height="1.75" fill="#000" />
  <rect x="15.25" y="0.5" width="1.75" height="1.75" fill="#000" />
  <rect x="4" y="14.5" width="1.75" height="1.75" fill="#000" />
  <rect x="4" y="21.5" width="1.75" height="1.75" fill="#000" />
  <rect x="4" y="25" width="1.75" height="1.75" fill="#000" />
  <rect x="4" y="11" width="1.75" height="1.75" fill="#000" />
  <rect x="4" y="18" width="1.75" height="1.75" fill="#000" />
  <rect x="7.75" y="28.5" width="1.75" height="1.75" fill="#000" />
  <rect x="11.5" y="28.5" width="1.75" height="1.75" fill="#000" />
  <rect x="15.25" y="28.5" width="1.75" height="1.75" fill="#000" />
  <rect x="7.75" y="35.5" width="1.75" height="1.75" fill="#000" />
  <rect x="7.75" y="39" width="1.75" height="1.75" fill="#000" />
  <rect x="11.5" y="35.5" width="1.75" height="1.75" fill="#000" />
  <rect x="15.25" y="35.5" width="1.75" height="1.75" fill="#000" />
  <rect x="11.5" y="39" width="1.75" height="1.75" fill="#000" />
  <rect x="15.25" y="39" width="1.75" height="1.75" fill="#000" />
  <rect x="7.75" y="32" width="1.75" height="1.75" fill="#000" />
  <rect x="11.5" y="32" width="1.75" height="1.75" fill="#000" />
  <rect x="15.25" y="32" width="1.75" height="1.75" fill="#000" />
  <rect x="4" y="28.5" width="1.75" height="1.75" fill="#000" />
  <rect x="4" y="35.5" width="1.75" height="1.75" fill="#000" />
  <rect x="4" y="39" width="1.75" height="1.75" fill="#000" />
  <rect x="4" y="32" width="1.75" height="1.75" fill="#000" />
  <rect x="4" y="7.5" width="1.75" height="1.75" fill="#000" />
  <rect x="4" y="4" width="1.75" height="1.75" fill="#000" />
  <rect x="4" y="0.5" width="1.75" height="1.75" fill="#000" />
  <rect x="0.25" y="14.5" width="1.75" height="1.75" fill="#000" />
  <rect x="0.25" y="21.5" width="1.75" height="1.75" fill="#000" />
  <rect x="0.25" y="25" width="1.75" height="1.75" fill="#000" />
  <rect x="0.25" y="11" width="1.75" height="1.75" fill="#000" />
  <rect x="0.25" y="18" width="1.75" height="1.75" fill="#000" />
  <rect x="0.25" y="28.5" width="1.75" height="1.75" fill="#000" />
  <rect x="0.25" y="35.5" width="1.75" height="1.75" fill="#000" />
  <rect x="0.25" y="39" width="1.75" height="1.75" fill="#000" />
  <rect x="0.25" y="32" width="1.75" height="1.75" fill="#000" />
  <rect x="0.25" y="7.5" width="1.75" height="1.75" fill="#000" />
  <rect x="0.25" y="4" width="1.75" height="1.75" fill="#000" />
  <rect x="0.25" y="0.5" width="1.75" height="1.75" fill="#000" />
</svg>
