<svg
  width="24"
  height="24"
  viewBox="0 0 24 24"
  fill="none"
  xmlns="http://www.w3.org/2000/svg">
  <path
    d="M22 19.7778L22 4.22222C22 3 21 2 19.7778 2L4.22222 2C3 2 2 3 2 4.22222L2 19.7778C2 21 3 22 4.22222 22L19.7778 22C21 22 22 21 22 19.7778ZM6.44444 8.66667L6.44444 6.44444L14.2222 6.44444V8.66667L6.44444 8.66667ZM9.77778 13.1111V12V10.8889H12L17.5556 10.8889V13.1111L9.77778 13.1111ZM6.44444 17.5556L6.44444 15.3333L10.8889 15.3333L10.8889 17.5556L6.44444 17.5556Z"
    fill="#000" />
</svg>
